{"glyphs":{"\u0000":{"ha":0,"x_min":0,"x_max":0,"o":""},"\n":{"ha":0,"x_min":0,"x_max":0,"o":""},"\r":{"ha":0,"x_min":0,"x_max":0,"o":""}," ":{"ha":336,"x_min":0,"x_max":0,"o":""},"A":{"ha":860,"x_min":0,"x_max":0,"o":"m 430 885 l 18 0 l 152 0 l 235 185 l 236 185 l 430 612 l 623 185 l 624 185 l 707 0 l 841 0 z "},"B":{"ha":729,"x_min":0,"x_max":0,"o":"m 524 464 b 626 638 580 486 626 552 b 329 864 626 787 516 864 l 71 864 l 71 741 l 349 741 b 503 633 446 741 503 706 b 349 525 503 558 446 525 l 71 525 l 71 401 l 369 401 b 544 262 476 401 544 358 b 369 123 544 167 476 123 l 71 123 l 71 0 l 390 0 b 668 260 563 0 668 111 b 524 464 668 346 625 440 z "},"C":{"ha":821,"x_min":0,"x_max":0,"o":"m 497 113 b 178 432 320 113 178 256 b 497 751 178 608 320 751 b 722 658 594 751 662 719 l 774 774 b 504 874 702 841 598 874 b 54 432 256 874 54 676 b 504 -10 54 188 256 -10 b 774 91 598 -10 702 24 l 722 207 b 497 113 662 145 594 113 z "},"D":{"ha":800,"x_min":0,"x_max":0,"o":"m 302 864 l 43 864 l 43 741 l 334 741 b 619 432 502 741 619 603 b 334 123 619 261 502 123 l 43 123 l 43 0 l 302 0 b 743 432 583 0 743 193 b 302 864 743 671 590 864 z "},"E":{"ha":571,"x_min":0,"x_max":0,"o":"m 42 864 l 42 741 l 535 741 l 535 864 z m 474 370 l 474 492 l 42 492 l 42 370 z m 165 124 l 42 124 l 42 0 l 535 0 l 535 123 l 165 123 z "},"F":{"ha":589,"x_min":0,"x_max":0,"o":"m 69 0 l 193 0 l 193 370 l 502 370 l 502 492 l 69 492 z m 69 864 l 69 741 l 563 741 l 563 864 z "},"G":{"ha":971,"x_min":0,"x_max":0,"o":"m 916 472 l 466 473 l 466 350 l 911 350 b 918 432 916 376 918 404 b 916 472 918 446 917 460 z m 497 113 b 178 432 320 113 178 256 b 497 751 178 608 320 751 b 754 597 612 751 705 689 l 879 633 b 497 874 805 777 671 874 b 54 432 252 874 54 676 b 497 -10 54 188 252 -10 b 899 295 693 -10 846 118 l 771 295 b 497 113 728 188 631 113 z "},"H":{"ha":854,"x_min":0,"x_max":0,"o":"m 558 370 l 558 494 l 293 494 l 293 370 z m 97 0 l 221 0 l 221 864 l 97 864 z m 632 864 l 632 494 l 630 494 l 630 370 l 632 370 l 632 0 l 756 0 l 756 864 z "},"I":{"ha":318,"x_min":0,"x_max":0,"o":"m 221 0 l 221 864 l 97 864 l 97 0 z "},"J":{"ha":578,"x_min":0,"x_max":0,"o":"m 368 864 l 368 319 b 203 113 368 195 319 113 b 80 175 148 113 103 141 l 18 69 b 203 -10 49 30 129 -10 b 491 329 370 -10 491 94 l 491 864 z "},"K":{"ha":757,"x_min":0,"x_max":0,"o":"m 334 441 l 715 864 l 550 864 l 221 484 l 221 864 l 97 864 l 97 0 l 221 0 l 221 381 l 570 0 l 735 0 z "},"L":{"ha":592,"x_min":0,"x_max":0,"o":"m 97 0 l 221 0 l 221 864 l 97 864 z m 570 0 l 570 123 l 291 123 l 291 0 z "},"M":{"ha":1063,"x_min":0,"x_max":0,"o":"m 47 0 l 173 0 l 237 394 l 142 573 z m 868 885 l 531 231 l 194 885 l 161 689 l 531 -21 l 900 688 z m 919 577 l 825 395 l 888 0 l 1014 0 z "},"N":{"ha":913,"x_min":0,"x_max":0,"o":"m 94 0 l 218 0 l 218 486 l 94 610 z m 691 864 l 691 273 l 94 885 l 94 715 l 815 -21 l 815 864 z "},"O":{"ha":994,"x_min":0,"x_max":0,"o":"m 54 432 b 461 -9 54 200 233 9 l 461 115 b 178 432 301 132 178 267 b 461 749 178 598 301 732 l 461 873 b 54 432 233 855 54 665 z m 532 873 l 532 749 b 815 432 692 732 815 598 b 532 115 815 267 692 132 l 532 -9 b 939 432 760 9 939 200 b 532 873 939 665 760 855 z "},"P":{"ha":718,"x_min":0,"x_max":0,"o":"m 344 864 l 76 864 l 76 741 l 376 741 b 550 580 466 741 550 693 b 384 422 550 468 474 422 l 76 422 l 76 0 l 200 0 l 200 298 l 382 298 b 673 588 565 298 673 426 b 344 864 673 751 569 864 z "},"Q":{"ha":1011,"x_min":0,"x_max":0,"o":"m 54 432 b 472 -10 54 196 239 3 l 472 114 b 178 432 306 127 178 263 b 472 750 178 601 306 737 l 472 874 b 54 432 239 861 54 668 z m 828 140 b 939 432 898 217 939 320 b 542 872 939 661 765 849 l 542 748 b 815 432 698 726 815 594 b 743 230 815 355 788 284 l 651 329 l 542 329 l 542 290 l 661 158 b 542 116 626 137 585 122 l 542 -8 b 745 66 617 0 686 26 l 805 0 l 960 0 z "},"R":{"ha":744,"x_min":0,"x_max":0,"o":"m 471 310 b 673 588 600 345 673 454 b 344 864 673 751 569 864 l 76 864 l 76 741 l 386 741 b 550 580 476 741 550 693 b 384 422 550 468 474 422 l 76 422 l 76 0 l 200 0 l 200 298 l 335 298 l 550 0 l 694 0 z "},"S":{"ha":767,"x_min":0,"x_max":0,"o":"m 400 504 b 204 629 264 531 204 562 b 390 751 204 706 271 751 b 612 660 498 751 567 703 l 671 772 b 392 874 565 871 428 874 b 81 624 190 874 81 764 b 390 381 81 508 149 422 b 586 248 508 360 586 318 b 386 113 586 166 516 113 b 113 240 284 113 185 161 l 51 130 b 383 -10 64 114 175 -10 b 710 253 585 -10 710 103 b 400 504 710 399 606 464 z "},"T":{"ha":604,"x_min":0,"x_max":0,"o":"m 590 743 l 590 864 l 14 864 l 14 743 z m 364 0 l 364 672 l 240 672 l 240 0 z "},"U":{"ha":826,"x_min":0,"x_max":0,"o":"m 618 864 l 618 340 b 413 113 618 206 541 113 b 207 340 283 113 207 206 l 207 864 l 83 864 l 83 381 b 413 -10 83 153 181 -10 b 742 381 639 -10 742 153 l 742 864 z "},"V":{"ha":815,"x_min":0,"x_max":0,"o":"m 408 270 l 150 864 l 17 864 l 408 -21 l 471 124 l 408 271 z m 665 864 l 445 356 l 509 209 l 799 864 z "},"W":{"ha":1233,"x_min":0,"x_max":0,"o":"m 19 864 l 380 -21 l 443 140 l 153 864 z m 1079 864 l 895 401 l 960 242 l 1213 864 z m 423 404 l 486 249 l 616 576 l 853 -21 l 916 135 l 616 884 z "},"X":{"ha":829,"x_min":0,"x_max":0,"o":"m 785 864 l 637 864 l 457 604 l 530 501 z m 192 864 l 44 864 l 337 446 l 24 0 l 173 0 l 415 349 l 656 0 l 806 0 z "},"Y":{"ha":767,"x_min":0,"x_max":0,"o":"m 614 864 l 417 527 l 483 413 l 753 864 z m 12 864 l 321 350 l 321 0 l 445 0 l 445 350 l 151 864 z "},"Z":{"ha":744,"x_min":0,"x_max":0,"o":"m 521 864 l 54 864 l 54 741 l 442 741 z m 712 864 l 580 864 l 33 0 l 692 0 l 692 123 l 247 123 z "},"a":{"ha":688,"x_min":0,"x_max":0,"o":"m 343 683 l 24 -5 l 127 -5 l 192 139 l 193 139 l 343 471 l 494 139 l 494 139 l 559 -5 l 663 -5 z "},"b":{"ha":594,"x_min":0,"x_max":0,"o":"m 420 356 b 500 491 464 373 500 424 b 269 667 500 607 414 667 l 68 667 l 68 571 l 284 571 b 404 487 360 571 404 544 b 284 403 404 429 360 403 l 68 403 l 68 307 l 300 307 b 436 199 383 307 436 273 b 300 91 436 125 383 91 l 68 91 l 68 -5 l 316 -5 b 532 197 451 -5 532 81 b 420 356 532 264 499 337 z "},"c":{"ha":664,"x_min":0,"x_max":0,"o":"m 399 83 b 151 331 262 83 151 194 b 399 579 151 468 262 579 b 574 507 475 579 528 554 l 615 597 b 405 675 559 649 478 675 b 56 331 212 675 56 521 b 405 -13 56 141 212 -13 b 615 66 478 -13 559 14 l 574 156 b 399 83 528 108 475 83 z "},"d":{"ha":647,"x_min":0,"x_max":0,"o":"m 245 667 l 44 667 l 44 571 l 270 571 b 492 331 401 571 492 464 b 270 91 492 198 401 91 l 44 91 l 44 -5 l 245 -5 b 588 331 464 -5 588 145 b 245 667 588 517 469 667 z "},"e":{"ha":454,"x_min":0,"x_max":0,"o":"m 38 667 l 38 571 l 421 571 l 421 667 z m 373 283 l 373 378 l 38 378 l 38 283 z m 133 92 l 38 92 l 38 -5 l 421 -5 l 421 91 l 133 91 z "},"f":{"ha":476,"x_min":0,"x_max":0,"o":"m 64 -5 l 160 -5 l 160 283 l 400 283 l 400 378 l 64 378 z m 64 667 l 64 571 l 447 571 l 447 667 z "},"g":{"ha":782,"x_min":0,"x_max":0,"o":"m 725 362 l 375 363 l 375 267 l 721 267 b 727 331 725 288 727 309 b 725 362 727 342 726 353 z m 399 83 b 151 331 262 83 151 194 b 399 579 151 468 262 579 b 599 459 489 579 561 531 l 696 487 b 399 675 639 599 535 675 b 56 331 209 675 56 521 b 399 -13 56 141 209 -13 b 712 225 552 -13 671 87 l 612 225 b 399 83 579 142 504 83 z "},"h":{"ha":693,"x_min":0,"x_max":0,"o":"m 448 283 l 448 379 l 242 379 l 242 283 z m 90 -5 l 186 -5 l 186 667 l 90 667 z m 506 667 l 506 379 l 504 379 l 504 283 l 506 283 l 506 -5 l 602 -5 l 602 667 z "},"i":{"ha":278,"x_min":0,"x_max":0,"o":"m 186 -5 l 186 667 l 90 667 l 90 -5 z "},"j":{"ha":476,"x_min":0,"x_max":0,"o":"m 298 667 l 298 243 b 170 83 298 147 260 83 b 74 131 127 83 92 105 l 26 49 b 170 -13 50 18 112 -13 b 394 251 300 -13 394 68 l 394 667 z "},"k":{"ha":610,"x_min":0,"x_max":0,"o":"m 274 338 l 570 667 l 442 667 l 186 371 l 186 667 l 90 667 l 90 -5 l 186 -5 l 186 291 l 458 -5 l 586 -5 z "},"l":{"ha":485,"x_min":0,"x_max":0,"o":"m 90 -5 l 186 -5 l 186 667 l 90 667 z m 458 -5 l 458 91 l 241 91 l 241 -5 z "},"m":{"ha":849,"x_min":0,"x_max":0,"o":"m 49 -5 l 146 -5 l 196 302 l 122 441 z m 686 683 l 424 175 l 162 683 l 137 531 l 424 -21 l 711 530 z m 726 443 l 653 302 l 702 -5 l 800 -5 z "},"n":{"ha":739,"x_min":0,"x_max":0,"o":"m 89 -5 l 185 -5 l 185 373 l 89 469 z m 552 667 l 552 207 l 89 683 l 89 550 l 648 -21 l 648 667 z "},"o":{"ha":799,"x_min":0,"x_max":0,"o":"m 56 331 b 372 -11 56 150 195 3 l 372 85 b 151 331 247 98 151 202 b 372 577 151 460 247 564 l 372 673 b 56 331 195 660 56 512 z m 427 673 l 427 577 b 647 331 551 564 647 460 b 427 85 647 202 551 98 l 427 -11 b 743 331 604 3 743 150 b 427 673 743 512 604 660 z "},"p":{"ha":585,"x_min":0,"x_max":0,"o":"m 281 667 l 74 667 l 74 571 l 306 571 b 441 446 376 571 441 534 b 312 323 441 359 382 323 l 74 323 l 74 -5 l 170 -5 l 170 227 l 311 227 b 537 452 453 227 537 326 b 281 667 537 579 456 667 z "},"q":{"ha":811,"x_min":0,"x_max":0,"o":"m 56 331 b 380 -12 56 148 199 -2 l 380 84 b 151 331 251 94 151 200 b 380 578 151 462 251 568 l 380 674 b 56 331 199 664 56 514 z m 657 104 b 743 331 711 164 743 244 b 435 673 743 509 608 655 l 435 576 b 647 331 555 559 647 457 b 591 174 647 271 626 216 l 519 251 l 435 251 l 435 221 l 527 118 b 435 86 500 102 468 91 l 435 -11 b 592 46 493 -5 546 16 l 639 -5 l 759 -5 z "},"r":{"ha":606,"x_min":0,"x_max":0,"o":"m 380 236 b 537 452 480 263 537 348 b 281 667 537 579 456 667 l 74 667 l 74 571 l 314 571 b 441 446 384 571 441 534 b 312 323 441 359 382 323 l 74 323 l 74 -5 l 170 -5 l 170 227 l 274 227 l 441 -5 l 553 -5 z "},"s":{"ha":624,"x_min":0,"x_max":0,"o":"m 325 387 b 173 484 219 408 173 432 b 317 579 173 544 225 579 b 490 508 401 579 455 542 l 536 595 b 319 675 453 672 347 675 b 77 480 162 675 77 589 b 317 291 77 390 130 323 b 470 188 409 275 470 242 b 314 83 470 124 415 83 b 102 182 235 83 158 120 l 54 96 b 312 -13 64 84 150 -13 b 566 192 469 -13 566 75 b 325 387 566 305 485 356 z "},"t":{"ha":490,"x_min":0,"x_max":0,"o":"m 468 572 l 468 667 l 21 667 l 21 572 z m 293 -5 l 293 518 l 197 518 l 197 -5 z "},"u":{"ha":671,"x_min":0,"x_max":0,"o":"m 495 667 l 495 259 b 335 83 495 155 435 83 b 175 259 234 83 175 155 l 175 667 l 79 667 l 79 291 b 335 -13 79 114 155 -13 b 591 291 511 -13 591 114 l 591 667 z "},"v":{"ha":656,"x_min":0,"x_max":0,"o":"m 327 205 l 127 667 l 24 667 l 327 -21 l 377 92 l 327 206 z m 527 667 l 356 272 l 406 157 l 631 667 z "},"w":{"ha":978,"x_min":0,"x_max":0,"o":"m 25 667 l 305 -21 l 354 104 l 129 667 z m 848 667 l 705 307 l 755 183 l 952 667 z m 338 309 l 388 188 l 488 443 l 672 -21 l 721 100 l 488 682 z "},"x":{"ha":664,"x_min":0,"x_max":0,"o":"m 619 667 l 504 667 l 364 464 l 421 385 z m 159 667 l 44 667 l 272 342 l 28 -5 l 144 -5 l 331 266 l 519 -5 l 635 -5 z "},"y":{"ha":615,"x_min":0,"x_max":0,"o":"m 487 667 l 334 405 l 385 316 l 595 667 z m 19 667 l 259 267 l 259 -5 l 355 -5 l 355 267 l 127 667 z "},"z":{"ha":597,"x_min":0,"x_max":0,"o":"m 414 667 l 51 667 l 51 571 l 352 571 z m 562 667 l 459 667 l 35 -5 l 546 -5 l 546 91 l 201 91 z "}," ":{"ha":336,"x_min":0,"x_max":0,"o":""},"­":{"ha":0,"x_min":0,"x_max":0,"o":""}}}
